<?xml version="1.0" standalone="no"?><!DOCTYPE svg PUBLIC "-//W3C//DTD SVG 1.1//EN" "http://www.w3.org/Graphics/SVG/1.1/DTD/svg11.dtd"><svg t="1522721122527" class="icon" style="" viewBox="0 0 1024 1024" version="1.1" xmlns="http://www.w3.org/2000/svg" p-id="4699" xmlns:xlink="http://www.w3.org/1999/xlink" width="200" height="200"><defs><style type="text/css"></style></defs><path d="M917.9648 917.32992c0 22.47168-17.8944 40.69888-39.91552 40.69888-22.05696 0-39.91552-18.23232-39.91552-40.69888l-0.0768-0.49152h-1.09056c-18.944-157.66528-148.17792-280.29952-306.82112-285.47584-3.41504 0.14848-6.75328 0.5632-10.24 0.5632-3.45088 0-6.78912-0.4096-10.20416-0.52736-158.60736 5.14048-287.84128 127.80544-306.78528 285.43488h-1.01376l0.0768 0.49152c0 22.47168-17.85344 40.69888-39.91552 40.69888s-39.91552-18.23232-39.91552-40.69888l-0.37376-3.7888c0-6.75328 2.02752-12.9024 4.9152-18.52928 21.08416-140.71296 111.0784-258.24256 235.43296-312.78592-73.71264-51.39456-122.14272-137.70752-122.14272-235.6224 0-157.58848 125.33248-285.3632 279.92576-285.3632 154.62912 0 279.9616 127.7696 279.9616 285.3632 0 97.87392-48.38912 184.15104-122.10176 235.5456 124.84096 54.7328 215.10144 172.86144 235.80672 314.20928 2.43712 5.28896 4.01408 10.99264 4.01408 17.18272l0.37888 3.79392z" fill="#ffffff" p-id="4700"></path></svg>